<svg width="17" height="16" viewBox="0 0 17 16" fill="none" xmlns="http://www.w3.org/2000/svg">
<path d="M8.05957 1.23242C8.1195 1.04832 8.3805 1.04832 8.44043 1.23242L9.76562 5.31348C9.84596 5.56067 10.077 5.72754 10.3369 5.72754H14.627C14.8207 5.72754 14.9018 5.97595 14.7451 6.08984L11.2734 8.61133C11.0632 8.76407 10.9755 9.03509 11.0557 9.28223L12.3818 13.3633C12.4414 13.5473 12.2309 13.7003 12.0742 13.5869L8.60254 11.0645C8.39234 10.9119 8.10766 10.9119 7.89746 11.0645L4.42578 13.5869C4.26913 13.7003 4.05855 13.5473 4.11816 13.3633L5.44434 9.28223C5.52452 9.03509 5.43676 8.76407 5.22656 8.61133L1.75488 6.08984C1.59819 5.97595 1.67931 5.72754 1.87305 5.72754H6.16309C6.42301 5.72754 6.65404 5.56067 6.73438 5.31348L8.05957 1.23242Z" fill="#004952" stroke="#004952" stroke-width="0.4"/>
</svg>
