<svg width="17" height="16" viewBox="0 0 17 16" fill="none" xmlns="http://www.w3.org/2000/svg">
<path d="M8.05957 1.23242C8.1195 1.04832 8.3805 1.04832 8.44043 1.23242L9.76562 5.31348C9.84596 5.56067 10.077 5.72754 10.3369 5.72754H14.627C14.8207 5.72754 14.9018 5.97595 14.7451 6.08984L11.2734 8.61133C11.0632 8.76407 10.9755 9.03509 11.0557 9.28223L12.3818 13.3633C12.4414 13.5473 12.2309 13.7003 12.0742 13.5869L8.60254 11.0645C8.39234 10.9119 8.10766 10.9119 7.89746 11.0645L4.42578 13.5869C4.26913 13.7003 4.05855 13.5473 4.11816 13.3633L5.44434 9.28223C5.52452 9.03509 5.43676 8.76407 5.22656 8.61133L1.75488 6.08984C1.59819 5.97595 1.67931 5.72754 1.87305 5.72754H6.16309C6.42301 5.72754 6.65404 5.56067 6.73438 5.31348L8.05957 1.23242Z" stroke="#004952" stroke-width="0.4"/>
<mask id="path-2-inside-1_381_8235" fill="white">
<path d="M8.25002 0.894532V1.29492L6.92385 5.375C6.81675 5.70462 6.50969 5.92773 6.16311 5.92773H1.87209L5.34377 8.4502C5.62403 8.65393 5.74089 9.01518 5.63381 9.34473L4.30862 13.4248L7.77932 10.9033C7.91964 10.8014 8.08484 10.7509 8.25002 10.751V11.1504C8.1674 11.1504 8.08477 11.1756 8.01467 11.2266L4.54397 13.749L4.48342 13.7852C4.19964 13.9274 3.8647 13.6839 3.91213 13.3701L3.92776 13.3018L5.25393 9.2207C5.30743 9.05591 5.24859 8.87528 5.10842 8.77344L1.63772 6.25195C1.34374 6.03837 1.46671 5.58831 1.80276 5.5332L1.87209 5.52832H6.16311L6.22658 5.52246C6.35208 5.50232 6.46055 5.42362 6.51858 5.31055L6.54397 5.25195L7.86916 1.1709C7.92909 0.986458 8.08961 0.89432 8.25002 0.894532Z"/>
</mask>
<path d="M8.25002 0.894532V1.29492L6.92385 5.375C6.81675 5.70462 6.50969 5.92773 6.16311 5.92773H1.87209L5.34377 8.4502C5.62403 8.65393 5.74089 9.01518 5.63381 9.34473L4.30862 13.4248L7.77932 10.9033C7.91964 10.8014 8.08484 10.7509 8.25002 10.751V11.1504C8.1674 11.1504 8.08477 11.1756 8.01467 11.2266L4.54397 13.749L4.48342 13.7852C4.19964 13.9274 3.8647 13.6839 3.91213 13.3701L3.92776 13.3018L5.25393 9.2207C5.30743 9.05591 5.24859 8.87528 5.10842 8.77344L1.63772 6.25195C1.34374 6.03837 1.46671 5.58831 1.80276 5.5332L1.87209 5.52832H6.16311L6.22658 5.52246C6.35208 5.50232 6.46055 5.42362 6.51858 5.31055L6.54397 5.25195L7.86916 1.1709C7.92909 0.986458 8.08961 0.89432 8.25002 0.894532Z" fill="#004952"/>
<path d="M8.25002 0.894532H8.65002V0.495059L8.25055 0.494532L8.25002 0.894532ZM8.25002 1.29492L8.63043 1.41857L8.65002 1.3583V1.29492H8.25002ZM6.92385 5.375L6.54344 5.25135L6.54343 5.25139L6.92385 5.375ZM1.87209 5.92773V5.52773H0.641073L1.63697 6.25134L1.87209 5.92773ZM5.34377 8.4502L5.57898 8.12665L5.57889 8.1266L5.34377 8.4502ZM5.63381 9.34473L5.25339 9.22112L5.25337 9.22116L5.63381 9.34473ZM4.30862 13.4248L3.92818 13.3012L3.54798 14.4718L4.54372 13.7484L4.30862 13.4248ZM7.77932 10.9033L8.01443 11.2269L8.01443 11.2269L7.77932 10.9033ZM8.25002 10.751H8.65002V10.3512L8.25028 10.351L8.25002 10.751ZM8.25002 11.1504L8.25002 11.5504L8.65002 11.5504V11.1504H8.25002ZM8.01467 11.2266L7.77956 10.903L7.7795 10.903L8.01467 11.2266ZM4.54397 13.749L4.74895 14.0925L4.76449 14.0832L4.77913 14.0726L4.54397 13.749ZM4.48342 13.7852L4.66267 14.1427L4.6758 14.1362L4.6884 14.1286L4.48342 13.7852ZM3.91213 13.3701L3.52219 13.281L3.51886 13.2956L3.51662 13.3103L3.91213 13.3701ZM3.92776 13.3018L3.54734 13.1781L3.5418 13.1952L3.53781 13.2126L3.92776 13.3018ZM5.25393 9.2207L5.63435 9.34432L5.63438 9.34423L5.25393 9.2207ZM5.10842 8.77344L5.34353 8.44983L5.34353 8.44983L5.10842 8.77344ZM1.63772 6.25195L1.4026 6.57556L1.40261 6.57557L1.63772 6.25195ZM1.80276 5.5332L1.77466 5.13419L1.75625 5.13549L1.73803 5.13847L1.80276 5.5332ZM1.87209 5.52832V5.12832H1.85803L1.84399 5.12931L1.87209 5.52832ZM6.16311 5.52832V5.92832H6.18153L6.19987 5.92663L6.16311 5.52832ZM6.22658 5.52246L6.26335 5.92077L6.27672 5.91953L6.28998 5.91741L6.22658 5.52246ZM6.51858 5.31055L6.87445 5.49318L6.88041 5.48157L6.8856 5.46959L6.51858 5.31055ZM6.54397 5.25195L6.91099 5.411L6.91854 5.39356L6.92441 5.37549L6.54397 5.25195ZM7.86916 1.1709L7.48874 1.04729L7.48872 1.04736L7.86916 1.1709ZM8.25002 0.894532H7.85002V1.29492H8.25002H8.65002V0.894532H8.25002ZM8.25002 1.29492L7.86961 1.17128L6.54344 5.25135L6.92385 5.375L7.30426 5.49865L8.63043 1.41857L8.25002 1.29492ZM6.92385 5.375L6.54343 5.25139C6.48987 5.41622 6.33638 5.52773 6.16311 5.52773V5.92773V6.32773C6.683 6.32773 7.14363 5.99302 7.30427 5.49861L6.92385 5.375ZM6.16311 5.92773V5.52773H1.87209V5.92773V6.32773H6.16311V5.92773ZM1.87209 5.92773L1.63697 6.25134L5.10865 8.7738L5.34377 8.4502L5.57889 8.1266L2.10722 5.60413L1.87209 5.92773ZM5.34377 8.4502L5.10857 8.77374C5.24833 8.87534 5.30707 9.05592 5.25339 9.22112L5.63381 9.34473L6.01423 9.46833C6.17471 8.97444 5.99973 8.43253 5.57898 8.12665L5.34377 8.4502ZM5.63381 9.34473L5.25337 9.22116L3.92818 13.3012L4.30862 13.4248L4.68905 13.5484L6.01425 9.46829L5.63381 9.34473ZM4.30862 13.4248L4.54372 13.7484L8.01443 11.2269L7.77932 10.9033L7.54421 10.5797L4.07351 13.1012L4.30862 13.4248ZM7.77932 10.9033L8.01443 11.2269C8.08407 11.1763 8.16629 11.1509 8.24976 11.151L8.25002 10.751L8.25028 10.351C8.0034 10.3508 7.75521 10.4264 7.54421 10.5797L7.77932 10.9033ZM8.25002 10.751H7.85002V11.1504H8.25002H8.65002V10.751H8.25002ZM8.25002 11.1504L8.25002 10.7504C8.08599 10.7504 7.92043 10.8006 7.77956 10.903L8.01467 11.2266L8.24978 11.5502L8.25002 11.5504L8.25002 11.1504ZM8.01467 11.2266L7.7795 10.903L4.3088 13.4255L4.54397 13.749L4.77913 14.0726L8.24984 11.5501L8.01467 11.2266ZM4.54397 13.749L4.33898 13.4055L4.27844 13.4417L4.48342 13.7852L4.6884 14.1286L4.74895 14.0925L4.54397 13.749ZM4.48342 13.7852L4.30417 13.4276C4.30351 13.4279 4.30438 13.4274 4.30646 13.427C4.30841 13.4267 4.31014 13.4267 4.31129 13.4268C4.31315 13.427 4.31167 13.4272 4.30871 13.4251C4.30574 13.4229 4.30544 13.4214 4.30617 13.4231C4.30663 13.4241 4.30717 13.4257 4.30744 13.4276C4.30774 13.4297 4.30753 13.4306 4.30764 13.4299L3.91213 13.3701L3.51662 13.3103C3.42077 13.9445 4.08862 14.4305 4.66267 14.1427L4.48342 13.7852ZM3.91213 13.3701L4.30207 13.4592L4.3177 13.3909L3.92776 13.3018L3.53781 13.2126L3.52219 13.281L3.91213 13.3701ZM3.92776 13.3018L4.30817 13.4254L5.63435 9.34432L5.25393 9.2207L4.87351 9.09708L3.54734 13.1781L3.92776 13.3018ZM5.25393 9.2207L5.63438 9.34423C5.74147 9.01442 5.62368 8.65337 5.34353 8.44983L5.10842 8.77344L4.87331 9.09704L4.87348 9.09717L5.25393 9.2207ZM5.10842 8.77344L5.34353 8.44983L1.87282 5.92834L1.63772 6.25195L1.40261 6.57557L4.87331 9.09705L5.10842 8.77344ZM1.63772 6.25195L1.87283 5.92835C1.86879 5.92541 1.86822 5.92415 1.86908 5.92532C1.86988 5.92641 1.87079 5.92808 1.87139 5.92987C1.87249 5.93314 1.8714 5.93277 1.87236 5.92885C1.87339 5.92469 1.87516 5.9231 1.87429 5.92395C1.87361 5.92462 1.87224 5.92574 1.87025 5.92677C1.86811 5.92787 1.86685 5.92804 1.86748 5.92793L1.80276 5.5332L1.73803 5.13847C1.06326 5.24912 0.811448 6.14606 1.4026 6.57556L1.63772 6.25195ZM1.80276 5.5332L1.83086 5.93222L1.90019 5.92733L1.87209 5.52832L1.84399 5.12931L1.77466 5.13419L1.80276 5.5332ZM1.87209 5.52832V5.92832H6.16311V5.52832V5.12832H1.87209V5.52832ZM6.16311 5.52832L6.19987 5.92663L6.26335 5.92077L6.22658 5.52246L6.18982 5.12415L6.12634 5.13001L6.16311 5.52832ZM6.22658 5.52246L6.28998 5.91741C6.54113 5.87709 6.75824 5.71961 6.87445 5.49318L6.51858 5.31055L6.16271 5.12791L6.16318 5.12752L6.22658 5.52246ZM6.51858 5.31055L6.8856 5.46959L6.91099 5.411L6.54397 5.25195L6.17695 5.09291L6.15155 5.1515L6.51858 5.31055ZM6.54397 5.25195L6.92441 5.37549L8.24961 1.29444L7.86916 1.1709L7.48872 1.04736L6.16352 5.12842L6.54397 5.25195ZM7.86916 1.1709L8.24959 1.29451L8.24949 1.29453L8.25002 0.894532L8.25055 0.494532C7.93685 0.494118 7.60827 0.679421 7.48874 1.04729L7.86916 1.1709Z" fill="#004952" mask="url(#path-2-inside-1_381_8235)"/>
</svg>
